<svg xmlns="http://www.w3.org/2000/svg" width="41.771" height="41.771" viewBox="0 0 41.771 41.771">
  <g id="Icon_ionic-ios-add-circle-outline" data-name="Icon ionic-ios-add-circle-outline" transform="translate(-3.375 -3.375)">
    <path id="Caminho_221" data-name="Caminho 221" d="M30.293,19.6H22.812V12.118a1.607,1.607,0,1,0-3.213,0V19.6H12.118a1.539,1.539,0,0,0-1.607,1.607,1.555,1.555,0,0,0,1.607,1.607H19.6v7.481A1.556,1.556,0,0,0,21.206,31.9a1.6,1.6,0,0,0,1.607-1.607V22.812h7.481a1.607,1.607,0,0,0,0-3.213Z" transform="translate(3.055 3.055)" fill="#f7f8fa"/>
    <path id="Caminho_222" data-name="Caminho 222" d="M24.261,6.187a18.067,18.067,0,1,1-12.782,5.292A17.955,17.955,0,0,1,24.261,6.187m0-2.812A20.886,20.886,0,1,0,45.146,24.261,20.883,20.883,0,0,0,24.261,3.375Z" fill="#f7f8fa"/>
  </g>
</svg>
